<svg width="32" height="33" viewBox="0 0 32 33" fill="none" xmlns="http://www.w3.org/2000/svg">
<path d="M10.0207 0.0341187C7.95261 0.121853 6.5363 0.385061 5.33934 0.898941C4.21758 1.38149 3.55329 1.82643 2.72607 2.64739C1.61058 3.75661 0.914957 5.00371 0.476279 6.67696C0.0877356 8.15593 0 9.85424 0 16.0145C0 22.0746 0.0814688 23.7917 0.444945 25.2706C1.34737 28.9493 4.04211 31.2931 8.00901 31.8383C9.1433 31.9887 11.5247 32.0576 16.0744 32.0576C20.3045 32.0576 22.7423 31.9949 23.839 31.8633C26.0825 31.6001 27.8373 30.8231 29.2222 29.4945C30.7827 27.9904 31.6099 26.1919 31.9107 23.6287C32.0298 22.626 32.0298 9.25262 31.9107 8.30633C31.6663 6.38868 31.096 4.80944 30.1936 3.59995C29.7486 2.99833 28.7961 2.08964 28.2007 1.68229C26.8534 0.773603 25.2303 0.272257 23.0933 0.090519C22.0843 0.00905228 11.7315 -0.0348167 10.0207 0.0341187ZM23.5758 3.061C25.3619 3.3242 26.3646 3.76915 27.3296 4.72797C27.9563 5.35466 28.301 5.90614 28.6081 6.75843C29.122 8.1998 29.1721 8.96435 29.1721 16.0459C29.1721 20.1256 29.147 22.0871 29.0906 22.7451C28.9089 24.9197 28.4765 26.0916 27.4612 27.1758C26.4022 28.3038 25.0799 28.8615 23.0306 29.0495C21.9214 29.1561 12.753 29.2062 10.6411 29.1185C9.68852 29.0809 8.69209 29.0182 8.42262 28.9806C7.23819 28.8177 6.09136 28.3978 5.37694 27.8776C4.932 27.5455 4.21758 26.7684 3.95437 26.3297C3.42796 25.4524 3.11461 24.2178 3.00808 22.6511C2.82007 19.806 2.88274 10.0422 3.09581 8.4254C3.32142 6.75216 3.84157 5.62413 4.82546 4.67157C5.90335 3.62501 7.31966 3.1174 9.51305 2.97953C9.98933 2.95446 13.1917 2.93566 16.6384 2.94819C21.984 2.96073 23.0055 2.97326 23.5758 3.061Z" fill="white"/>
<path d="M23.7638 5.7369C23.0557 6.09411 22.7173 6.6456 22.7173 7.46028C22.7173 8.04937 22.8551 8.40031 23.2562 8.80138C23.6573 9.19619 24.0082 9.34033 24.5973 9.34033C25.0172 9.34033 25.1551 9.31526 25.4559 9.16486C26.0888 8.85152 26.446 8.30631 26.4962 7.57935C26.54 6.93387 26.3959 6.55786 25.9509 6.10665C25.5373 5.69304 25.1739 5.5489 24.566 5.5489C24.2276 5.5489 24.0772 5.5865 23.7638 5.7369Z" fill="white"/>
<path d="M14.5766 7.90514C12.9285 8.20595 11.4683 8.97677 10.24 10.2113C8.61062 11.8344 7.82727 13.7333 7.82727 16.0144C7.82727 17.3931 8.08421 18.5274 8.65449 19.668C10.4092 23.1523 14.2696 24.9384 18.0234 24.0046C19.5024 23.6349 20.6429 22.9957 21.7522 21.924C22.7486 20.9589 23.4191 19.9061 23.839 18.6465C24.1398 17.7378 24.2526 17.0359 24.2526 16.0144C24.2526 14.9992 24.1398 14.291 23.8453 13.4011C23.4442 12.1979 22.8614 11.2454 21.9527 10.3053C20.7119 9.0269 19.164 8.19968 17.4594 7.89887C16.7638 7.7798 15.2535 7.7798 14.5766 7.90514ZM17.0583 10.7753C19.9285 11.3268 21.8336 14.1469 21.2822 17.0359C20.9437 18.7844 19.659 20.3385 18.0171 20.9715C17.215 21.2848 16.7512 21.36 15.8237 21.3224C15.1657 21.2974 14.9088 21.2598 14.4764 21.1219C12.5775 20.5203 11.1926 18.9849 10.804 17.0547C10.6536 16.309 10.71 15.1496 10.9356 14.4477C11.5247 12.5802 13.0977 11.1576 14.9715 10.7816C15.5292 10.6688 16.4943 10.6688 17.0583 10.7753Z" fill="white"/>
</svg>
