<svg width="52" height="52" viewBox="0 0 52 52" fill="none" xmlns="http://www.w3.org/2000/svg">
<circle cx="26" cy="26" r="26" fill="white"/>
<path d="M26.2268 39.9222C25.8222 40.9842 25.4776 42.0364 25.0269 43.0307C24.5861 44.0035 24.1079 44.9731 23.5208 45.844C22.5065 47.3483 20.9994 47.6887 19.4441 46.6525C19.0632 46.3991 18.7097 46.0866 18.3759 45.7613C17.9792 45.3747 18.0165 45.1557 18.4544 44.8003C18.8059 44.5157 19.1643 44.2355 19.4893 43.9166C20.8128 42.6163 21.6238 40.9713 22.1413 39.1341C22.2326 38.8109 22.3259 38.4888 22.4123 38.1849C21.6847 38.5156 20.9768 38.8517 20.2571 39.1523C20.0951 39.22 19.8742 39.22 19.7073 39.1599C18.5939 38.7593 17.9969 37.8434 17.7779 36.6408C17.5177 35.2117 17.6179 33.7868 18.0038 32.3888C18.2266 31.5824 18.6861 30.9618 19.2713 30.441C19.6523 30.1017 20.0804 29.931 20.5448 30.2155C21.0288 30.5119 21.2861 31.0111 21.2066 31.5963C21.0583 32.683 20.8325 33.7557 20.643 34.8359C20.5949 35.1097 20.5526 35.3867 20.5242 35.6637C20.5026 35.8742 20.6263 35.9848 20.7932 35.9118C21.0789 35.7872 21.3862 35.6669 21.614 35.4543C22.1953 34.9132 22.7382 34.3247 23.293 33.7503C23.347 33.6945 23.399 33.6182 23.4177 33.542C23.6592 32.5498 23.9037 31.5577 24.1246 30.5591C24.1786 30.3143 24.1884 30.0415 24.1541 29.7924C24.1285 29.6067 24.0402 29.378 23.9096 29.2706C22.9867 28.5104 23.1045 27.1499 24.1649 26.6281C24.7049 26.3629 25.2822 26.2759 25.833 26.5411C26.3299 26.7806 26.8227 27.0619 27.2577 27.413C27.782 27.835 28.0019 28.4728 28.0167 29.1836C28.0245 29.5508 28.0177 29.917 28.0177 30.3325C28.1993 30.2531 28.3525 30.1897 28.5027 30.121C29.73 29.5627 30.9966 29.3318 32.3211 29.5627C33.0045 29.6818 33.5739 30.0469 34.0236 30.5967C34.9908 31.781 35.571 33.1501 35.4925 34.7736C35.4522 35.6057 35.2313 36.3971 34.7728 37.0725C34.0933 38.0732 33.1576 38.2847 32.0747 38.0925C30.1434 37.75 28.757 36.5131 27.5709 34.9218C27.5356 34.8745 27.5012 34.8283 27.4285 34.7296C27.2567 35.5231 27.0947 36.2693 26.9278 37.037C28.5302 37.6094 29.9882 38.4684 31.3923 39.439C32.5086 40.21 33.5612 41.0744 34.3683 42.2319C34.979 43.107 35.4935 44.0551 35.4944 45.2008C35.4954 46.0254 35.1822 46.718 34.4674 47.0831C33.7821 47.4331 33.1046 47.3096 32.5558 46.7609C32.112 46.3175 31.6966 45.8171 31.3559 45.277C30.0412 43.1961 28.4065 41.4877 26.4811 40.0983C26.4015 40.0382 26.3151 39.9823 26.2268 39.9222ZM32.0207 33.1919C31.9892 33.1812 31.9578 33.1715 31.9264 33.1608C31.9264 33.0384 31.9303 32.916 31.9254 32.7936C31.893 31.8412 31.4217 31.4256 30.5754 31.6565C29.4993 31.9507 28.5871 32.5885 27.7516 33.3648C27.5739 33.5302 27.5356 33.9232 27.6858 34.0026C28.5184 34.4439 29.3382 34.926 30.2023 35.2761C30.7855 35.5123 31.3265 35.217 31.6102 34.5964C31.8105 34.1626 31.8891 33.6622 32.0207 33.1919Z" fill="black"/>
<path d="M28.2847 22.1612C28.0336 23.5495 27.036 24.2763 25.7738 24.0837C24.4093 23.8759 23.2755 23.1665 22.242 22.2047C22.1651 22.1329 22.0862 22.0578 22.0308 21.9675C21.7534 21.516 21.3914 21.207 20.9369 20.9861C20.3432 20.6978 20.3169 20.0341 20.2478 19.4346C20.1787 18.8308 20.1554 18.2215 20.0999 17.6155C20.0882 17.4936 20.0221 17.3783 19.9802 17.2597C19.9481 17.264 19.9169 17.2684 19.8848 17.2738C19.878 17.3859 19.8654 17.498 19.8654 17.6111C19.8634 19.1909 19.8634 20.7718 19.8615 22.3516C19.8615 22.5257 19.8517 22.6998 19.841 22.8738C19.8011 23.4701 19.55 23.8259 19.0819 23.9575C18.6342 24.0837 18.1982 23.889 17.9306 23.42C17.6085 22.8564 17.4975 22.2178 17.5092 21.5682C17.5277 20.5368 17.591 19.5064 17.6416 18.4761C17.7204 16.8745 17.8206 15.273 17.881 13.6703C17.9656 11.3964 18.0153 9.12024 18.0961 6.8452C18.1136 6.34254 17.9754 6.01831 17.5326 5.84532C17.2279 5.72564 16.9807 5.50803 17.0012 5.08262C17.0226 4.64524 17.2708 4.42111 17.6085 4.29054C18.3102 4.01745 19.1131 4.29163 19.5238 4.99231C19.6912 5.27846 19.8654 5.29152 20.0717 5.14246C20.351 4.94118 20.5982 4.68549 20.8756 4.48095C21.3203 4.15237 21.768 3.82705 22.2322 3.53437C23.4984 2.73577 24.7675 2.91094 26.0404 3.54308C27.4282 4.23288 27.9752 5.54285 28.1951 7.10415C28.2564 7.54262 28.309 7.98218 28.3703 8.45438C29.0185 8.28574 29.5829 7.96368 30.0559 7.49148C30.7936 6.7549 31.4973 5.97479 32.2038 5.20012C32.4724 4.90527 32.6019 4.55384 32.598 4.10014C32.5902 3.15574 33.0758 2.94249 33.8291 3.25258C33.9507 3.30263 34.0753 3.38967 34.16 3.49738C34.8841 4.41784 35.288 5.48627 35.0651 6.70811C34.9775 7.18793 34.6417 7.61661 34.3936 8.05072C34.2758 8.25636 34.0997 8.41847 33.9546 8.59364C34.1882 8.81995 34.414 9.01797 34.6184 9.2421C35.9351 10.6881 35.7697 12.4626 34.8354 13.8999C34.4335 14.519 34.4461 14.5788 34.9288 15.1381C35.7249 16.0607 36.1045 17.1846 35.9984 18.463C35.9682 18.8243 35.7872 19.2029 35.5926 19.5064C34.7196 20.8675 33.7123 22.0959 32.523 23.123C32.0335 23.5451 31.4846 23.8639 30.851 23.8922C29.8068 23.9379 29.0525 23.3613 28.4793 22.4343C28.4355 22.3636 28.4034 22.2831 28.3625 22.2102C28.3518 22.1927 28.3255 22.1862 28.2847 22.1612ZM28.4277 20.02C28.5504 20.0069 28.6827 20.008 28.8073 19.9765C30.0579 19.6598 31.0914 18.8939 32.0462 17.9843C32.4179 17.6307 32.7566 17.2292 33.0817 16.8212C33.3658 16.4643 33.3853 16.1499 33.1965 15.9214C32.9834 15.6625 32.6865 15.6777 32.3294 15.9715C32.2126 16.0672 32.1065 16.1793 31.9887 16.2718C31.6705 16.5209 31.363 16.7973 31.0233 17.0029C30.197 17.5023 29.3542 17.944 28.4277 17.0595C28.4277 18.0844 28.4277 19.0353 28.4277 20.02ZM19.8858 16.3817C20.2654 16.4861 20.5972 16.5786 20.8921 16.6602C21.2181 16.2837 21.5266 15.8746 21.8838 15.5265C22.4561 14.9683 23.1412 14.9357 23.7933 15.2686C24.5281 15.644 25.04 16.2696 25.0487 17.2499C25.0546 17.9767 24.9543 18.6817 24.6789 19.3508C24.6332 19.4618 24.6215 19.6033 24.6322 19.7262C24.6555 19.9884 24.7821 20.2746 24.7207 20.502C24.6594 20.7294 24.42 20.898 24.2701 21.0786C25.0692 21.392 25.3154 21.2201 25.3193 20.2637C25.3271 18.3738 25.3241 16.4839 25.3125 14.594C25.3115 14.4831 25.2103 14.2851 25.1412 14.2774C24.6838 14.2219 24.2127 14.1338 23.7641 14.2002C23.3106 14.2676 22.8677 14.4765 22.4356 14.6691C21.6181 15.0336 20.7938 15.3535 19.8858 15.4133C19.8858 15.7615 19.8858 16.1053 19.8858 16.3817ZM32.4092 10.2627C31.6997 10.6815 31.0321 11.0972 30.3469 11.4725C29.8759 11.7304 29.3756 11.7043 28.8871 11.5052C28.7489 11.4486 28.6224 11.3572 28.5017 11.2876C28.5017 12.3527 28.5017 13.3918 28.5017 14.569C29.0126 14.2948 29.4866 14.1284 29.8681 13.8183C30.7021 13.1394 31.5051 12.4082 32.2895 11.6586C32.8549 11.1189 32.8442 10.971 32.4306 10.2844C32.4189 10.2648 32.3985 10.2507 32.4092 10.2627ZM23.4488 11.9393C24.1047 12.0655 24.7178 12.1841 25.3796 12.3114C25.3796 11.5966 25.3884 10.8904 25.3679 10.1854C25.366 10.1016 25.2142 9.96781 25.1198 9.95366C24.5728 9.86662 24.0609 10.0244 23.584 10.3138C23.4925 10.3693 23.404 10.5347 23.403 10.6511C23.3991 11.083 23.4312 11.5171 23.4488 11.9393ZM25.3932 7.69168C25.2872 7.0998 25.2083 6.50466 25.0662 5.9291C24.9777 5.56896 24.7587 5.4656 24.4716 5.64621C23.9636 5.96609 23.4848 6.34472 23.0069 6.68962C23.1286 7.01385 23.2162 7.28041 23.33 7.53174C23.3641 7.60681 23.4711 7.68515 23.5461 7.68624C24.13 7.69821 24.713 7.69168 25.3932 7.69168ZM21.6697 20.1244C22.0765 19.7491 22.5553 19.6609 22.7111 19.1409C22.8765 18.5903 23.0244 18.0333 23.1772 17.4784C23.2259 17.301 23.2911 17.1226 23.3008 16.942C23.3057 16.8517 23.221 16.7157 23.1451 16.6732C23.0964 16.646 22.9641 16.7287 22.9115 16.8005C22.8444 16.8919 22.823 17.0258 22.7743 17.1357C22.5106 17.7319 22.2361 18.3129 21.5811 18.4848C21.5169 18.5011 21.4264 18.6426 21.4352 18.7111C21.4945 19.1496 21.5763 19.5815 21.6697 20.1244ZM21.2327 7.91037C20.8824 7.96804 20.5768 8.01047 20.2741 8.07357C20.2167 8.08554 20.133 8.17476 20.1291 8.23351C20.0902 8.76446 20.0668 9.2965 20.0357 9.87859C20.4357 9.54131 20.7812 9.25516 21.1208 8.95922C21.1743 8.91243 21.2249 8.8243 21.2279 8.75141C21.2405 8.48375 21.2327 8.21501 21.2327 7.91037ZM21.1743 11.738C20.7802 11.8446 20.4269 11.936 20.0775 12.0405C20.0289 12.0546 19.9637 12.134 19.9598 12.1874C19.9296 12.6334 19.9121 13.0795 19.8897 13.5583C20.2897 13.3211 20.6313 13.1231 20.968 12.9142C21.0264 12.8782 21.0945 12.7988 21.1013 12.7325C21.1364 12.4137 21.151 12.0938 21.1743 11.738Z" fill="black"/>
</svg>
