<svg width="34" height="34" viewBox="0 0 34 34" fill="none" xmlns="http://www.w3.org/2000/svg">
<g clip-path="url(#clip0_707_68)">
<path d="M34 16.5622C34 25.7093 26.5279 33.1243 17.309 33.1243C14.3824 33.1243 11.6329 32.3763 9.24082 31.0635L0 34L3.01278 25.1139C1.49298 22.6183 0.617667 19.6913 0.617667 16.5622C0.617667 7.41502 8.09049 0 17.309 0C26.5287 0 34 7.41502 34 16.5622ZM17.309 2.63764C9.57062 2.63764 3.27609 8.8842 3.27609 16.5622C3.27609 19.6089 4.26927 22.4306 5.94924 24.7259L4.19598 29.8973L9.58876 28.1834C11.8044 29.6382 14.4587 30.4867 17.3094 30.4867C25.0467 30.4867 31.3423 24.2409 31.3423 16.5629C31.3423 8.88496 25.047 2.63764 17.309 2.63764ZM25.7376 20.3766C25.6345 20.2077 25.3621 20.1057 24.9534 19.9028C24.5438 19.7 22.5318 18.7174 22.1578 18.5825C21.7827 18.4473 21.5092 18.3793 21.2368 18.7854C20.9644 19.1919 20.1801 20.1057 19.941 20.3766C19.7022 20.6482 19.4639 20.6822 19.0544 20.479C18.6456 20.2761 17.3275 19.8469 15.7647 18.4643C14.5486 17.3884 13.7273 16.0601 13.4886 15.6532C13.2502 15.2471 13.4636 15.0276 13.668 14.8255C13.8524 14.6434 14.0775 14.3514 14.2819 14.1145C14.487 13.8773 14.555 13.7084 14.6906 13.4372C14.8278 13.1663 14.7594 12.9294 14.6566 12.7258C14.5546 12.523 13.7356 10.5253 13.3949 9.71229C13.0541 8.90007 12.7137 9.03531 12.4746 9.03531C12.2362 9.03531 11.9631 9.00131 11.6903 9.00131C11.4176 9.00131 10.9741 9.10293 10.5989 9.50904C10.2242 9.91553 9.16753 10.8978 9.16753 12.8951C9.16753 14.8928 10.6329 16.8228 10.8381 17.0933C11.0424 17.3638 13.6676 21.5964 17.827 23.222C21.9867 24.8468 21.9867 24.3047 22.7369 24.2367C23.4864 24.1691 25.157 23.2549 25.4992 22.3074C25.8392 21.3584 25.8392 20.5458 25.7376 20.3766Z" fill="white"/>
</g>
<defs>
<clipPath id="clip0_707_68">
<rect width="34" height="34" fill="white"/>
</clipPath>
</defs>
</svg>
